<svg id="visual" viewBox="0 0 1440 600" width="1440" height="600" xmlns="http://www.w3.org/2000/svg" xmlns:xlink="http://www.w3.org/1999/xlink" version="1.1"><path d="M0 413L34.3 405.8C68.7 398.7 137.3 384.3 205.8 389.3C274.3 394.3 342.7 418.7 411.2 416.5C479.7 414.3 548.3 385.7 617 372.2C685.7 358.7 754.3 360.3 823 372.8C891.7 385.3 960.3 408.7 1028.8 408.2C1097.3 407.7 1165.7 383.3 1234.2 379.2C1302.7 375 1371.3 391 1405.7 399L1440 407L1440 601L1405.7 601C1371.3 601 1302.7 601 1234.2 601C1165.7 601 1097.3 601 1028.8 601C960.3 601 891.7 601 823 601C754.3 601 685.7 601 617 601C548.3 601 479.7 601 411.2 601C342.7 601 274.3 601 205.8 601C137.3 601 68.7 601 34.3 601L0 601Z" fill="#f1f1f1"></path><path d="M0 394L34.3 397.2C68.7 400.3 137.3 406.7 205.8 416.8C274.3 427 342.7 441 411.2 447.3C479.7 453.7 548.3 452.3 617 449.5C685.7 446.7 754.3 442.3 823 439.3C891.7 436.3 960.3 434.7 1028.8 432.7C1097.3 430.7 1165.7 428.3 1234.2 429.3C1302.7 430.3 1371.3 434.7 1405.7 436.8L1440 439L1440 601L1405.7 601C1371.3 601 1302.7 601 1234.2 601C1165.7 601 1097.3 601 1028.8 601C960.3 601 891.7 601 823 601C754.3 601 685.7 601 617 601C548.3 601 479.7 601 411.2 601C342.7 601 274.3 601 205.8 601C137.3 601 68.7 601 34.3 601L0 601Z" fill="#afafaf"></path><path d="M0 495L34.3 492.2C68.7 489.3 137.3 483.7 205.8 482.7C274.3 481.7 342.7 485.3 411.2 479.7C479.7 474 548.3 459 617 457.2C685.7 455.3 754.3 466.7 823 472.5C891.7 478.3 960.3 478.7 1028.8 476C1097.3 473.3 1165.7 467.7 1234.2 467C1302.7 466.3 1371.3 470.7 1405.7 472.8L1440 475L1440 601L1405.7 601C1371.3 601 1302.7 601 1234.2 601C1165.7 601 1097.3 601 1028.8 601C960.3 601 891.7 601 823 601C754.3 601 685.7 601 617 601C548.3 601 479.7 601 411.2 601C342.7 601 274.3 601 205.8 601C137.3 601 68.7 601 34.3 601L0 601Z" fill="#717171"></path><path d="M0 487L34.3 494C68.7 501 137.3 515 205.8 516.5C274.3 518 342.7 507 411.2 501.5C479.7 496 548.3 496 617 494.7C685.7 493.3 754.3 490.7 823 490.8C891.7 491 960.3 494 1028.8 498.5C1097.3 503 1165.7 509 1234.2 507.2C1302.7 505.3 1371.3 495.7 1405.7 490.8L1440 486L1440 601L1405.7 601C1371.3 601 1302.7 601 1234.2 601C1165.7 601 1097.3 601 1028.8 601C960.3 601 891.7 601 823 601C754.3 601 685.7 601 617 601C548.3 601 479.7 601 411.2 601C342.7 601 274.3 601 205.8 601C137.3 601 68.7 601 34.3 601L0 601Z" fill="#393939"></path><path d="M0 552L34.3 549.3C68.7 546.7 137.3 541.3 205.8 539.8C274.3 538.3 342.7 540.7 411.2 545.5C479.7 550.3 548.3 557.7 617 557.3C685.7 557 754.3 549 823 547.2C891.7 545.3 960.3 549.7 1028.8 548C1097.3 546.3 1165.7 538.7 1234.2 541.5C1302.7 544.3 1371.3 557.7 1405.7 564.3L1440 571L1440 601L1405.7 601C1371.3 601 1302.7 601 1234.2 601C1165.7 601 1097.3 601 1028.8 601C960.3 601 891.7 601 823 601C754.3 601 685.7 601 617 601C548.3 601 479.7 601 411.2 601C342.7 601 274.3 601 205.8 601C137.3 601 68.7 601 34.3 601L0 601Z" fill="#000000"></path></svg>