<svg id="visual" viewBox="0 0 1440 600" width="1440" height="600" xmlns="http://www.w3.org/2000/svg" xmlns:xlink="http://www.w3.org/1999/xlink" version="1.1"><path d="M0 448L34.3 454.8C68.7 461.7 137.3 475.3 205.8 473.3C274.3 471.3 342.7 453.7 411.2 451.7C479.7 449.7 548.3 463.3 617 468.7C685.7 474 754.3 471 823 457.3C891.7 443.7 960.3 419.3 1028.8 411.8C1097.3 404.3 1165.7 413.7 1234.2 423.7C1302.7 433.7 1371.3 444.3 1405.7 449.7L1440 455L1440 601L1405.7 601C1371.3 601 1302.7 601 1234.2 601C1165.7 601 1097.3 601 1028.8 601C960.3 601 891.7 601 823 601C754.3 601 685.7 601 617 601C548.3 601 479.7 601 411.2 601C342.7 601 274.3 601 205.8 601C137.3 601 68.7 601 34.3 601L0 601Z" fill="#000" stroke-linecap="round" stroke-linejoin="miter"></path></svg>